<?xml version="1.0" standalone="no"?>
<!DOCTYPE svg PUBLIC "-//W3C//DTD SVG 20010904//EN"
 "http://www.w3.org/TR/2001/REC-SVG-20010904/DTD/svg10.dtd">
<svg version="1.0" xmlns="http://www.w3.org/2000/svg"
 width="80.000000pt" height="80.000000pt" viewBox="0 0 80.000000 80.000000"
 preserveAspectRatio="xMidYMid meet">

<g transform="translate(0.000000,80.000000) scale(0.100000,-0.100000)"
fill="#000000" stroke="none">
<path d="M265 777 c-65 -22 -99 -43 -138 -86 -45 -50 -66 -97 -79 -181 -5 -36
-16 -72 -24 -81 -9 -10 -14 -40 -14 -86 0 -82 15 -103 72 -103 33 0 39 -4 67
-54 39 -70 89 -119 151 -151 123 -63 265 -2 351 151 29 50 33 54 68 54 56 0
71 22 71 105 0 44 -5 74 -14 84 -8 9 -19 45 -24 81 -14 86 -34 132 -83 185
-61 66 -122 88 -254 92 -71 2 -124 -2 -150 -10z m314 -52 c87 -48 135 -124
143 -230 2 -34 0 -40 -16 -40 -14 0 -22 13 -33 55 -18 72 -57 128 -118 165
-46 28 -54 30 -155 30 -101 0 -109 -2 -155 -30 -61 -37 -100 -93 -118 -165
-11 -42 -19 -55 -33 -55 -16 0 -18 7 -15 44 7 96 51 173 127 217 64 38 95 44
214 40 95 -2 111 -5 159 -31z m-262 -185 c28 -34 54 -49 131 -78 51 -20 52
-20 41 0 -10 18 -8 19 28 12 58 -10 120 -40 133 -64 19 -35 2 -134 -34 -203
-36 -71 -115 -140 -176 -157 -54 -15 -106 0 -167 49 -82 65 -95 94 -32 72 18
-6 45 -11 60 -11 15 0 31 -5 34 -11 13 -20 53 -29 84 -18 38 13 46 34 21 59
-24 24 -67 26 -97 5 -18 -13 -30 -13 -73 -4 -69 15 -109 51 -121 109 -15 81
-13 87 34 108 49 22 85 70 94 127 3 19 8 35 10 35 2 0 16 -14 30 -30z"/>
<path d="M277 389 c-39 -22 -4 -79 35 -58 10 5 18 18 18 29 0 25 -30 41 -53
29z"/>
<path d="M487 389 c-39 -22 -4 -79 35 -58 10 5 18 18 18 29 0 25 -30 41 -53
29z"/>
</g>
</svg>
