<?xml version="1.0" standalone="no"?>
<!DOCTYPE svg PUBLIC "-//W3C//DTD SVG 20010904//EN"
 "http://www.w3.org/TR/2001/REC-SVG-20010904/DTD/svg10.dtd">
<svg version="1.0" xmlns="http://www.w3.org/2000/svg"
 width="536.000000pt" height="124.000000pt" viewBox="0 0 536.000000 124.000000"
 preserveAspectRatio="xMidYMid meet">

<g transform="translate(0.000000,124.000000) scale(0.100000,-0.100000)"
fill="#000000" stroke="none">
<path d="M930 1204 c-41 -27 -510 -497 -526 -526 -8 -15 -14 -45 -14 -67 0
-47 12 -64 160 -216 59 -60 110 -120 113 -132 7 -32 -19 -63 -53 -63 -47 0
-170 115 -354 329 -51 61 -60 106 -30 151 10 14 85 95 169 180 143 145 184
195 172 207 -3 3 -47 -2 -97 -11 l-92 -16 -140 -132 c-185 -175 -228 -227
-228 -279 0 -22 6 -52 14 -67 8 -15 131 -142 273 -283 187 -186 266 -258 287
-261 69 -13 90 2 354 265 140 139 260 265 269 281 10 19 14 45 10 73 -6 53
-42 99 -167 213 -89 82 -106 107 -101 145 5 31 21 45 52 45 23 0 58 -30 201
-176 182 -185 197 -204 198 -244 0 -44 -31 -85 -184 -246 -188 -197 -205 -228
-171 -311 l16 -37 255 254 c140 140 262 267 270 282 18 34 18 81 0 116 -8 15
-124 135 -258 268 -210 208 -250 243 -292 257 -62 21 -75 21 -106 1z m-74
-370 c13 -9 56 -52 94 -96 101 -114 97 -139 -38 -270 -103 -101 -114 -102
-210 -13 -108 101 -131 150 -98 213 8 15 50 62 94 105 85 83 110 92 158 61z"/>
</g>
</svg>
